<svg xmlns="http://www.w3.org/2000/svg">
  <symbol id="icon-trash" viewBox="0 0 448 512">
    <path d="M432 64H336L302.375 19.25C293.375 7.125 279.125 0 264 0H184C168.875 0 154.625 7.125 145.625 19.25L112 64H16C7.201 64 0 71.199 0 80C0 88.799 7.201 96 16 96H432C440.801 96 448 88.799 448 80C448 71.199 440.801 64 432 64ZM152 64L171.25 38.375C174.25 34.375 179 32 184 32H264C269 32 273.75 34.375 276.75 38.375L296 64H152ZM400 128C391.156 128 384 135.156 384 144V432C384 458.469 362.469 480 336 480H112C85.531 480 64 458.469 64 432V144C64 135.156 56.844 128 48 128S32 135.156 32 144V432C32 476.109 67.891 512 112 512H336C380.109 512 416 476.109 416 432V144C416 135.156 408.844 128 400 128ZM144 416V192C144 183.156 136.844 176 128 176S112 183.156 112 192V416C112 424.844 119.156 432 128 432S144 424.844 144 416ZM240 416V192C240 183.156 232.844 176 224 176S208 183.156 208 192V416C208 424.844 215.156 432 224 432S240 424.844 240 416ZM336 416V192C336 183.156 328.844 176 320 176S304 183.156 304 192V416C304 424.844 311.156 432 320 432S336 424.844 336 416Z" />
  </symbol>

  <symbol id="icon-sun" viewBox="0 0 640 512">
    <path d="M446.484 321.164C439.494 284.121 406.894 256.02 367.853 256.02C355.826 256.02 344.203 258.707 333.529 263.887C315.668 239.191 286.822 224 255.939 224C202.994 224 159.918 267.082 159.918 320.035C159.918 321.844 159.982 323.676 160.111 325.543C122.185 338.699 95.896 374.613 95.896 415.965C95.896 468.918 138.97 512 191.918 512H432.001C484.88 512 527.9 468.977 527.9 416.09C527.9 368.102 492.525 328.219 446.484 321.164ZM432.001 480H194.199C161.308 480 132.097 456.16 128.33 423.486C124.388 389.299 147.714 358.988 180.664 353.18L180.806 353.152C189.757 351.523 195.584 342.811 193.669 333.918C192.544 328.914 191.918 324.289 191.918 320.035C191.918 284.641 220.677 256 255.939 256C280.574 256 303.207 270.508 313.71 293.02C318.033 302.363 329.98 305.166 338.005 298.719L338.093 298.648C350.982 288.336 367.386 285.35 382.935 290.471C403.031 297.09 415.871 316.854 415.871 338.014V338.301C415.871 345.896 422.029 352.055 429.625 352.055C461.791 352.055 490.644 374.801 495.218 406.639C500.888 446.096 470.367 480 432.001 480ZM95.996 320C59.269 320 29.597 288.787 32.15 251.531C34.478 217.58 64.275 192 98.306 192H113.753C121.3 192 127.793 186.656 129.244 179.25C135.244 149.5 161.744 128 191.992 128H192.007C222.253 128 248.753 149.5 254.753 179.25C256.205 186.656 262.697 192 270.244 192H288.001C312.607 192 333.798 206.164 344.501 226.613C352.121 224.973 359.9 224.02 367.853 224.02C371.412 224.02 374.859 224.492 378.343 224.82C365.302 187.262 329.906 160 288.001 160H282.501C269.251 122.25 233.003 96 192.007 96H191.992C150.994 96 114.746 122.25 101.496 160H98.869C48.076 160 3.933 198.258 0.257 248.918C-3.457 300.123 33.496 343.359 81.943 350.578C88.793 339.078 97.574 328.859 107.685 320H95.996ZM636.646 248.094C631.552 239.688 622.148 235.406 612.445 237.344C581.445 243.156 549.929 235.062 525.882 215.094C502.101 195.375 488.46 166.469 488.46 135.719C488.46 98.594 508.664 64.125 541.07 45.844C549.742 41.062 554.304 31.656 552.679 21.875C551.054 12.062 543.679 4.625 534.117 2.906C524.148 0.969 513.695 0 503.07 0C420.564 0 351.822 58.918 336.939 137.922C347.693 142.438 357.746 148.414 366.863 155.641C373.668 85.855 433.794 31.352 505.085 32C474.632 57.5 456.46 95.406 456.46 135.719C456.46 176 474.32 213.937 505.46 239.75C530.445 260.438 561.117 271.75 593.664 271.188C572.695 289.469 546.71 300.938 518.617 304.094L497.007 306.445C509.41 313.898 520.367 323.32 529.584 334.336C570.845 327.844 608.06 307.195 634.724 274.625C640.974 266.938 641.74 256.531 636.646 248.094Z" />
  </symbol>

  <symbol id="icon-moon" viewBox="0 0 640 512">
    <path d="M138.329 314.2L92.625 323.25L105.125 260C106.25 253.75 103.75 247.25 98.25 243.5L44.75 207.75L98.25 171.875C103.75 168.25 106.25 161.75 105.125 155.375L92.625 92.25L155.75 104.75C162.25 106 168.625 103.25 172.25 97.875L208 44.375L243.75 98C247.375 103.25 253.75 106.125 260.25 104.75L323.375 92.25L316.118 128.908C313.898 140.121 324.349 149.7 335.327 146.516L335.327 146.516C340.675 144.964 344.753 140.621 345.964 135.186L359.375 75C360.375 69.75 358.75 64.375 355 60.625C351.25 56.75 346 55.125 340.625 56.25L264.375 71.25L221.25 6.75C215.25 -2.25 200.75 -2.25 194.75 6.75L151.5 71.25L75.25 56.125C70 55 64.75 56.75 60.875 60.5C57.125 64.25 55.5 69.75 56.5 74.875L71.625 151.25L7.125 194.375C2.75 197.375 0 202.375 0 207.75C0 213 2.75 218 7.125 221L71.625 264.25L56.5 340.375C55.5 345.75 57.125 351.125 60.875 354.75C64.75 358.5 70.125 360.25 75.25 359.25L144.488 346.791C153.18 345.227 159.121 337.126 158.002 328.366V328.366C156.784 318.838 147.752 312.334 138.329 314.2ZM208 149.75C236.75 149.75 260.5 171 264.875 198.625C267.25 197.75 269.75 196.75 272.25 196.25C277.25 187.25 283.375 179.125 290.25 171.75C276.25 140 244.75 117.75 208 117.75C158.5 117.75 118.25 158.125 118.25 207.75C118.25 247.25 143.875 280.375 179.25 292.5C179.319 292.194 183.008 276.484 189.875 262.375C166.875 254.75 150.125 233.25 150.125 207.75C150.25 175.75 176.125 149.75 208 149.75ZM550.375 164.75H549.875C533.25 124.125 494.625 95.625 450.5 95.625C404.125 95.625 364.25 125.75 349 169.75C335.533 174.484 323.74 182.625 314.057 192.961C328.066 194.078 341.672 197.234 354.408 202.75C356.538 201.723 358.715 200.786 360.946 199.978C369.396 196.918 375.921 190.088 378.792 181.572C389.395 150.126 417.317 127.625 450.375 127.625C482.358 127.625 509.399 148.489 520.75 178.163C525.296 190.048 537.267 196.828 549.991 196.751C550.078 196.75 550.164 196.75 550.25 196.75C582.125 196.75 607.875 224.25 607.875 258.25C607.984 288.023 588.256 312.805 561.945 318.508C570.867 326.059 578.787 334.648 585.383 344.289C617.439 330.055 640 296.938 640 258.25C640 206.75 599.75 164.75 550.375 164.75ZM494.617 321.164C487.627 284.125 455.037 256.02 416.006 256.02C403.984 256.02 392.367 258.703 381.699 263.883C363.846 239.188 335.01 224 304.135 224C251.201 224 208.137 267.082 208.137 320.035C208.137 321.844 208.201 323.68 208.33 325.547C170.418 338.703 144.141 374.617 144.141 415.965C144.141 468.918 187.205 512 240.137 512H480.129C532.992 512 576 468.977 576 416.09C576 368.105 540.637 328.23 494.617 321.164ZM480.129 480L242.437 480C209.549 480 180.341 456.162 176.575 423.489C172.634 389.301 195.949 358.989 228.887 353.18C239.969 351.162 244.027 343.858 242.404 336.321C241.254 330.978 240.137 326.082 240.137 320.035C240.137 284.641 268.887 256 304.135 256C328.758 256 351.383 270.508 361.883 293.02C367.215 304.553 376.273 306.672 386.256 298.648C399.143 288.333 415.555 285.347 431.099 290.477C451.181 297.104 464.004 316.865 464.004 338.012V338.328C464.004 345.909 470.15 352.055 477.731 352.055H477.731C509.895 352.055 538.748 374.802 543.32 406.64C548.986 446.097 518.479 480 480.129 480Z" />
  </symbol>

  <symbol id="icon-history" viewBox="0 0 512 512">
    <path d="M256 32C176.529 32 104.359 73.867 64 141.559V48C64 39.156 56.844 32 48 32S32 39.156 32 48V176C32 184.844 39.156 192 48 192H176C184.844 192 192 184.844 192 176S184.844 160 176 160H90.154C124.498 100.727 187.064 64 256 64C361.875 64 448 150.125 448 256S361.875 448 256 448C196.516 448 141.344 421.094 104.656 374.156C99.219 367.156 89.172 365.875 82.188 371.406C75.234 376.844 74 386.906 79.438 393.844C122.234 448.594 186.594 480 256 480C379.516 480 480 379.5 480 256S379.516 32 256 32ZM256 128C247.156 128 240 135.156 240 144V272C240 277.031 242.375 281.781 246.406 284.812L310.406 332.812C313.281 334.969 316.641 336 319.984 336C324.859 336 329.656 333.781 332.797 329.594C338.109 322.531 336.672 312.5 329.594 307.188L272 264V144C272 135.156 264.844 128 256 128Z" />    
  </symbol>

  <symbol id="icon-delete" viewBox="0 0 576 512">
    <path d="M512 64H205.25C188.25 64 172 70.75 160 82.75L9.375 233.375C-3.125 245.875 -3.125 266.125 9.375 278.625L160 429.25C172 441.25 188.25 448 205.25 448H512C547.375 448 576 419.375 576 384V128C576 92.625 547.375 64 512 64ZM544 384C544 401.645 529.645 416 512 416H205.25C196.709 416 188.676 412.67 182.629 406.621L32.004 256.002L182.629 105.377C188.676 99.33 196.709 96 205.25 96H512C529.645 96 544 110.355 544 128V384ZM427.312 180.688C421.062 174.438 410.937 174.438 404.687 180.688L352 233.375L299.312 180.688C293.062 174.438 282.937 174.438 276.687 180.688S270.437 197.063 276.687 203.312L329.375 256L276.687 308.688C270.437 314.938 270.437 325.063 276.687 331.312C282.934 337.559 293.059 337.566 299.312 331.312L352 278.625L404.687 331.312C410.934 337.559 421.059 337.566 427.312 331.312C433.562 325.062 433.562 314.937 427.312 308.688L374.625 256L427.312 203.312C433.562 197.062 433.562 186.938 427.312 180.688Z" />
  </symbol>

  <symbol id="icon-pi" viewBox="0 0 448 512">
    <path d="M441.078 372.469C448.359 377.469 450.188 387.437 445.172 394.719L425.688 422.969C414.844 438.656 397 448 377.969 448C346 448 320 422 320 390.031V96H160V269C160 305.125 150.531 340.812 132.594 372.219L93.891 439.938C90.938 445.094 85.547 448 79.984 448C77.297 448 74.562 447.312 72.062 445.906C64.391 441.5 61.719 431.719 66.109 424.062L104.813 356.344C119.984 329.781 128 299.562 128 269V96H16C7.164 96 0 88.836 0 80C0 71.162 7.164 64 16 64H432C440.836 64 448 71.162 448 80C448 88.836 440.836 96 432 96H352V390.031C352 404.344 363.656 416 377.969 416C386.5 416 394.5 411.812 399.359 404.781L418.828 376.531C423.859 369.25 433.812 367.375 441.078 372.469Z" />
  </symbol>

  <symbol id="icon-pow" viewBox="0 0 576 512">
    <path d="M336 96C344.844 96 352 88.844 352 80S344.844 64 336 64H288C282.531 64 277.438 66.797 274.5 71.406L176 226.195L77.5 71.406C74.562 66.797 69.469 64 64 64H16C7.156 64 0 71.156 0 80S7.156 96 16 96H55.219L157.035 256L55.219 416H16C7.156 416 0 423.156 0 432S7.156 448 16 448H64C69.469 448 74.562 445.203 77.5 440.594L176 285.805L274.5 440.594C277.438 445.203 282.531 448 288 448H336C344.844 448 352 440.844 352 432S344.844 416 336 416H296.781L194.965 256L296.781 96H336ZM496 160H464V16C464 7.156 456.844 0 448 0H416C407.156 0 400 7.156 400 16S407.156 32 416 32H432V160H400C391.156 160 384 167.156 384 176S391.156 192 400 192H496C504.844 192 512 184.844 512 176S504.844 160 496 160Z" />
  </symbol>

  <symbol id="icon-radical" viewBox="0 0 576 512">
    <path d="M539.334 228.666C533.111 222.443 522.93 222.443 516.709 228.666L463.5 281.375L411.291 228.666C405.07 222.443 394.889 222.443 388.666 228.666C382.445 234.889 382.445 245.068 388.666 251.291L440.875 304L388.666 356.709C382.445 362.93 382.445 373.111 388.666 379.334C394.889 385.555 405.07 385.555 411.291 379.334L463.5 326.625L516.709 379.334C522.93 385.555 533.111 385.555 539.334 379.334C545.555 373.111 545.555 362.93 539.334 356.709L486.125 304L539.334 251.291C545.555 245.068 545.555 234.889 539.334 228.666ZM560 32H360.5C338.875 32 319.75 46.625 314.25 67.502L213.125 443.018C211.5 448.518 202.75 449.268 200.375 444.143L119.125 267.885C111.25 251.01 94.125 240.01 75.5 240.01H16C7.201 240.01 0 247.209 0 256.01S7.201 272.01 16 272.01H75.5C81.75 272.01 87.5 275.635 90 281.26L171 456.645C175.25 465.895 182.625 473.645 192.125 477.27C215 486.02 238.125 472.77 244 451.268L345.125 75.877C347 68.877 353.25 64 360.5 64H560C568.799 64 576 56.801 576 48S568.799 32 560 32Z" />
  </symbol>

  <symbol id="icon-percentage" viewBox="0 0 384 512">
    <path d="M379.312 68.688C373.062 62.438 362.937 62.438 356.688 68.688L4.688 420.688C-1.562 426.938 -1.562 437.063 4.688 443.312C7.812 446.438 11.906 448 16 448S24.188 446.438 27.312 443.312L379.312 91.312C385.562 85.062 385.562 74.938 379.312 68.688ZM64 192C99.348 192 128 163.346 128 128S99.348 64 64 64C28.654 64 0 92.654 0 128S28.654 192 64 192ZM64 96C81.645 96 96 110.355 96 128S81.645 160 64 160S32 145.645 32 128S46.355 96 64 96ZM320 320C284.654 320 256 348.654 256 384S284.654 448 320 448C355.348 448 384 419.346 384 384S355.348 320 320 320ZM320 416C302.355 416 288 401.645 288 384S302.355 352 320 352S352 366.355 352 384S337.645 416 320 416Z" />
  </symbol>

  <symbol id="icon-division" viewBox="0 0 448 512">
    <path d="M432 240H16C7.156 240 0 247.156 0 256S7.156 272 16 272H432C440.844 272 448 264.844 448 256S440.844 240 432 240ZM224 192C259.346 192 288 163.348 288 128S259.346 64 224 64S160 92.652 160 128S188.654 192 224 192ZM224 96C241.645 96 256 110.355 256 128S241.645 160 224 160S192 145.645 192 128S206.355 96 224 96ZM224 320C188.654 320 160 348.652 160 384S188.654 448 224 448S288 419.348 288 384S259.346 320 224 320ZM224 416C206.355 416 192 401.645 192 384S206.355 352 224 352S256 366.355 256 384S241.645 416 224 416Z" />
  </symbol>

  <symbol id="icon-times" viewBox="0 0 320 512">
    <path d="M315.31 411.31C309.056 417.563 298.936 417.563 292.682 411.31L160 278.627L27.318 411.31C21.064 417.563 10.944 417.563 4.69 411.31C-1.563 405.056 -1.563 394.936 4.69 388.682L137.373 256L4.69 123.318C-1.563 117.064 -1.563 106.944 4.69 100.69C10.944 94.437 21.064 94.437 27.318 100.69L160 233.373L292.682 100.69C298.936 94.437 309.056 94.437 315.31 100.69C321.563 106.944 321.563 117.064 315.31 123.318L182.627 256L315.31 388.682C321.563 394.936 321.563 405.056 315.31 411.31Z" />
  </symbol>

  <symbol id="icon-absolute" viewBox="0 0 512 512">
    <path d="M16 32C7.199 32 0 39.199 0 48V464C0 472.799 7.199 480 16 480S32 472.799 32 464V48C32 39.199 24.801 32 16 32ZM496 32C487.199 32 480 39.199 480 48V464C480 472.799 487.199 480 496 480S512 472.799 512 464V48C512 39.199 504.801 32 496 32ZM363.312 148.688C357.062 142.438 346.937 142.438 340.688 148.688L256 233.375L171.312 148.688C165.062 142.438 154.937 142.438 148.688 148.688S142.438 165.063 148.688 171.312L233.375 256L148.688 340.688C142.438 346.938 142.438 357.063 148.688 363.312C151.812 366.438 155.906 368 160 368S168.188 366.438 171.312 363.312L256 278.625L340.688 363.312C343.812 366.438 347.906 368 352 368S360.188 366.438 363.312 363.312C369.562 357.062 369.562 346.937 363.312 340.688L278.625 256L363.312 171.312C369.562 165.062 369.562 154.938 363.312 148.688Z" />
  </symbol>

  <symbol id="icon-minus" viewBox="0 0 448 512">
    <path d="M432 256C432 264.844 424.844 272 416 272H32C23.156 272 16 264.844 16 256S23.156 240 32 240H416C424.844 240 432 247.156 432 256Z" />
  </symbol>

  <symbol id="icon-plus" viewBox="0 0 448 512">
    <path d="M432 256C432 264.844 424.844 272 416 272H240V448C240 456.844 232.844 464 224 464S208 456.844 208 448V272H32C23.156 272 16 264.844 16 256S23.156 240 32 240H208V64C208 55.156 215.156 48 224 48S240 55.156 240 64V240H416C424.844 240 432 247.156 432 256Z" />
  </symbol>

  <symbol id="icon-parentesis" viewBox="0 0 512 512">
    <path d="M121.406 60.935C128.531 55.747 130.125 45.747 124.938 38.622C119.688 31.403 109.781 29.903 102.625 35.028C98.438 38.059 0 110.841 0 255.998S98.438 473.938 102.625 476.969C105.469 479 108.719 480 111.969 480C116.906 480 121.781 477.688 124.937 473.375C130.125 466.25 128.531 456.25 121.406 451.062C117.75 448.375 32 384.281 32 255.998S117.75 63.622 121.406 60.935ZM409.375 35.028C402.219 29.934 392.313 31.466 387.063 38.622C381.875 45.747 383.469 55.747 390.594 60.935C394.25 63.622 480 127.716 480 255.998S394.25 448.375 390.594 451.062C383.469 456.25 381.875 466.25 387.062 473.375C390.219 477.719 395.094 480 400.031 480C403.281 480 406.531 479 409.375 476.969C413.562 473.938 512 401.156 512 255.998S413.562 38.059 409.375 35.028Z" />
  </symbol>

  <symbol id="icon-result" viewBox="0 0 448 512">
    <path d="M16 176H432C440.844 176 448 168.844 448 160S440.844 144 432 144H16C7.156 144 0 151.156 0 160S7.156 176 16 176ZM432 336H16C7.156 336 0 343.156 0 352S7.156 368 16 368H432C440.844 368 448 360.844 448 352S440.844 336 432 336Z" />
  </symbol>

  <symbol id="icon-open-parentesis" viewBox="0 0 192 512">
    <path d="M121.418 451.062C128.544 456.25 130.138 466.25 124.95 473.375C121.793 477.688 116.918 480 111.98 480C108.729 480 105.479 479 102.635 476.969C98.447 473.938 0 401.156 0 255.998S98.447 38.059 102.635 35.028C109.761 29.903 119.73 31.403 124.95 38.622C130.138 45.747 128.544 55.747 121.418 60.935C117.761 63.622 32.003 127.716 32.003 255.998S117.761 448.375 121.418 451.062Z" />
  </symbol>

  <symbol id="icon-close-parentesis" viewBox="0 0 192 512">
    <path d="M159.997 255.998C159.997 127.716 74.239 63.622 70.582 60.935C63.456 55.747 61.862 45.747 67.05 38.622C72.27 31.403 82.239 29.903 89.365 35.028C93.553 38.059 192 110.841 192 255.998S93.553 473.938 89.365 476.969C86.521 479 83.271 480 80.02 480C75.082 480 70.207 477.688 67.05 473.375C61.862 466.25 63.456 456.25 70.582 451.062C74.239 448.375 159.997 384.281 159.997 255.998Z" />
  </symbol>

  <symbol id="icon-toogle-sign" viewBox="0 0 384 512">
    <path d="M16 208H176V368C176 376.844 183.156 384 192 384S208 376.844 208 368V208H368C376.844 208 384 200.844 384 192S376.844 176 368 176H208V16C208 7.156 200.844 0 192 0S176 7.156 176 16V176H16C7.156 176 0 183.156 0 192S7.156 208 16 208ZM368 480H16C7.156 480 0 487.156 0 496S7.156 512 16 512H368C376.844 512 384 504.844 384 496S376.844 480 368 480Z" />
  </symbol>
</svg>